HIERARCHY
ROOT Hips
{
	OFFSET 0.000000 8.830580 0.000000
	CHANNELS 6 Xposition Yposition Zposition Zrotation Yrotation Xrotation 
	JOINT Spine
	{
		OFFSET 0.000000 0.010000 0.000000
		CHANNELS 3 Zrotation Yrotation Xrotation
		JOINT Spine1
		{
			OFFSET 0.000000 2.459130 0.000000
			CHANNELS 3 Zrotation Yrotation Xrotation
			JOINT Neck
			{
				OFFSET 0.000000 2.484630 0.000000
				CHANNELS 3 Zrotation Yrotation Xrotation
				JOINT Head_virtual
				{
					OFFSET 0.000000 0.000000 0.000000
					CHANNELS 3 Zrotation Yrotation Xrotation
					JOINT Head
					{
						OFFSET 0.000000 0.927525 0.000000
						CHANNELS 3 Zrotation Yrotation Xrotation
						End Site
						{
							OFFSET 0.000000 0.000000 0.000000
						}
					}
				}
				JOINT LeftUpArm_virtual
				{
					OFFSET 0.000000 0.000000 0.000000
					CHANNELS 3 Zrotation Yrotation Xrotation
					JOINT LeftUpArm
					{
						OFFSET 1.248820 0.000000 0.000000
						CHANNELS 3 Zrotation Yrotation Xrotation
						JOINT LeftForeArm
						{
							OFFSET 2.597580 0.000000 0.000000
							CHANNELS 3 Zrotation Yrotation Xrotation
							JOINT LeftHand
							{
								OFFSET 2.455420 0.000000 0.000000
								CHANNELS 3 Zrotation Yrotation Xrotation
								End Site
								{
									OFFSET 0.000000 0.000000 0.000000
								}
							}
						}
					}
				}
				JOINT RightUpArm_virtual
				{
					OFFSET -0.000000 -0.000000 -0.000000
					CHANNELS 3 Zrotation Yrotation Xrotation
					JOINT RightUpArm
					{
						OFFSET -1.248820 -0.000000 -0.000000
						CHANNELS 3 Zrotation Yrotation Xrotation
						JOINT RightForeArm
						{
							OFFSET -2.597580 -0.000000 -0.000000
							CHANNELS 3 Zrotation Yrotation Xrotation
							JOINT RightHand
							{
								OFFSET -2.455420 -0.000000 -0.000000
								CHANNELS 3 Zrotation Yrotation Xrotation
								End Site
								{
									OFFSET 0.000000 0.000000 0.000000
								}
							}
						}
					}
				}
			}
		}
	}
	JOINT LeftUpLeg
	{
		OFFSET 1.271939 0.000000 0.000000
		CHANNELS 3 Zrotation Yrotation Xrotation
		JOINT LeftLowLeg
		{
			OFFSET 0.000000 -4.342910 0.000000
			CHANNELS 3 Zrotation Yrotation Xrotation
			JOINT LeftFoot
			{
				OFFSET 0.000000 -4.487670 0.000000
				CHANNELS 3 Zrotation Yrotation Xrotation
				JOINT LeftToeBase
				{
					OFFSET 0.000000 0.000000 1.515070
					CHANNELS 3 Zrotation Yrotation Xrotation
					End Site
					{
						OFFSET 0.000000 0.000000 0.000000
					}
				}
			}
		}
	}
	JOINT RightUpLeg
	{
		OFFSET -1.271939 0.000000 0.000000
		CHANNELS 3 Zrotation Yrotation Xrotation
		JOINT RightLowLeg
		{
			OFFSET 0.000000 -4.342910 0.000000
			CHANNELS 3 Zrotation Yrotation Xrotation
			JOINT RightFoot
			{
				OFFSET 0.000000 -4.487670 0.000000
				CHANNELS 3 Zrotation Yrotation Xrotation
				JOINT RightToeBase
				{
					OFFSET 0.000000 0.000000 1.515070
					CHANNELS 3 Zrotation Yrotation Xrotation
					End Site
					{
						OFFSET 0.000000 0.000000 0.000000
					}
				}
			}
		}
	}
}
MOTION
Frames: 13
Frame Time: 0.041667
-18.436419 0.364051 49.256393 -176.386814 6.260217 119.548169 4.057359 -8.167612 35.702566 -12.858039 -0.441740 27.712494 0.000000 0.000000 0.000000 0.761798 -36.047574 5.063980 -5.116944 50.969693 -67.317175 -4.341510 -0.165089 4.162000 -7.376550 -20.109301 -10.902900 0.000000 -62.459400 0.000000 16.408100 6.598440 17.642500 13.889300 -4.737370 5.915020 47.607800 -7.443980 17.679600 0.000000 73.348198 0.000000 -8.236760 -38.486301 -40.669498 4.234607 -4.500243 -84.103471 0.000000 0.000000 121.231003 -13.599150 -8.048867 27.059557 0.000000 0.000000 -43.213800 10.164965 -9.202450 -68.114418 0.000000 0.000000 79.823799 59.911356 4.391346 21.034298 0.000000 0.000000 -106.762802 
-18.437428 0.364776 49.254363 -176.158861 6.158044 119.600730 4.053214 -8.274345 35.632175 -12.694067 -0.538804 27.540921 0.000000 0.000000 0.000000 0.866023 -36.123398 5.152130 -5.344662 51.103921 -67.590354 -4.785860 0.309770 4.057260 -8.171040 -19.254000 -10.702600 0.000000 -61.960899 0.000000 16.440201 6.550220 18.034500 14.344600 -4.946820 5.628270 47.137901 -7.289170 17.576000 0.000000 73.485199 0.000000 -13.665500 -34.731098 -32.715302 3.944870 -4.663281 -83.914172 0.000000 0.000000 120.164001 -14.546607 -8.505800 27.016375 0.000000 0.000000 -42.787300 9.447645 -8.844540 -67.991948 0.000000 0.000000 79.746101 60.626726 4.523171 21.473881 0.000000 0.000000 -107.130096 
-18.439579 0.364773 49.250477 -176.049825 6.055815 119.677214 4.030677 -8.289092 35.493924 -12.563419 -0.578985 27.439719 0.000000 0.000000 0.000000 1.021491 -36.197928 5.236339 -5.650982 51.312753 -67.902857 -5.123690 0.781227 3.909330 -9.000070 -18.402300 -10.218800 0.000000 -61.576500 0.000000 16.713400 6.912060 18.468700 14.769300 -5.160160 5.308070 46.693401 -7.060510 17.399000 0.000000 73.502602 0.000000 -18.214300 -30.727600 -24.743999 3.558330 -4.755397 -83.716441 0.000000 0.000000 118.966003 -15.259465 -9.050256 27.196122 0.000000 0.000000 -42.622299 8.583218 -8.378010 -67.907028 0.000000 0.000000 79.677498 61.007408 4.571969 22.056219 0.000000 0.000000 -107.796898 
-18.444936 0.367003 49.245700 -175.772090 5.980645 119.819300 4.229164 -8.459627 35.279258 -12.530291 -0.531444 27.376375 0.000000 0.000000 0.000000 1.160683 -36.197184 5.344058 -5.627414 51.539515 -68.061727 -5.439410 1.197840 3.771800 -9.854000 -17.646000 -9.788930 0.000000 -61.066898 0.000000 16.671900 7.005490 19.524401 15.269000 -5.380140 4.854690 46.133099 -6.685060 17.426500 0.000000 73.158203 0.000000 -20.973900 -26.731501 -18.891701 3.207480 -5.034347 -83.589277 0.000000 0.000000 117.667999 -15.627306 -9.367113 27.515358 0.000000 0.000000 -42.520000 7.887964 -8.178432 -67.861085 0.000000 0.000000 79.834999 61.171605 4.593783 22.507798 0.000000 0.000000 -107.398903 
-18.444193 0.367201 49.240627 -175.657475 6.040623 119.921641 4.339236 -8.376736 35.137671 -12.327909 -0.371774 27.303023 0.000000 0.000000 0.000000 1.381048 -36.266321 5.410834 -5.557628 51.766482 -68.139760 -5.808320 1.516970 3.714790 -10.620500 -16.911600 -9.228580 0.000000 -60.455601 0.000000 17.040899 6.971500 20.473700 15.775900 -5.566920 4.536480 45.469299 -6.242650 17.629900 0.000000 72.686302 0.000000 -23.425501 -21.792400 -14.374700 2.661006 -4.854056 -83.384863 0.000000 0.000000 116.321999 -15.534660 -9.218393 27.674190 0.000000 0.000000 -42.290300 7.248904 -7.711075 -67.679222 0.000000 0.000000 79.824600 61.123810 4.619284 22.727965 0.000000 0.000000 -107.347801 
-18.442318 0.369323 49.235025 -175.358400 6.261174 119.953520 4.611120 -8.437081 35.061324 -12.111108 -0.160777 27.278915 0.000000 0.000000 0.000000 1.485043 -36.251074 5.505388 -5.219593 51.908550 -68.068997 -6.280260 1.943420 3.505090 -11.343800 -16.290899 -8.493250 0.000000 -59.724899 0.000000 17.322901 7.065890 20.984400 16.309500 -5.695520 4.544010 44.687401 -5.483760 17.838200 0.000000 72.236504 0.000000 -25.355600 -19.049601 -9.953640 2.257980 -4.737266 -83.088823 0.000000 0.000000 114.995003 -15.442691 -8.858237 27.568521 0.000000 0.000000 -42.426399 6.894492 -7.407698 -67.280693 0.000000 0.000000 79.754097 61.361863 4.591924 22.739267 0.000000 0.000000 -107.296600 
-18.441604 0.369585 49.229652 -175.147120 6.433654 120.002231 4.806231 -8.451802 34.987447 -11.874399 0.014562 27.251901 0.000000 0.000000 0.000000 1.581346 -36.237596 5.561550 -4.965274 52.032083 -67.979439 -6.806140 2.290700 3.369150 -11.989200 -15.555700 -7.839130 0.000000 -58.957600 0.000000 17.322300 7.075630 21.461399 16.747900 -5.737810 4.381520 43.934799 -4.831480 18.124201 0.000000 71.754799 0.000000 -26.375401 -17.083000 -6.325990 1.726684 -4.537531 -82.747449 0.000000 0.000000 113.609001 -14.886538 -8.461873 27.261333 0.000000 0.000000 -42.681200 6.555089 -7.125199 -66.931673 0.000000 0.000000 79.692902 61.347683 4.421840 22.563556 0.000000 0.000000 -107.214699 
-18.440556 0.370035 49.225597 -174.997112 6.551193 120.201984 4.961055 -8.469268 34.772784 -11.782594 0.144622 27.256394 0.000000 0.000000 0.000000 1.904892 -36.406399 5.519536 -5.155743 52.269384 -68.063233 -7.283830 2.723490 3.188370 -12.615400 -14.808700 -7.107600 0.000000 -58.203300 0.000000 17.465500 7.104710 21.930201 17.216999 -5.677060 4.183150 43.165901 -4.078060 18.416500 0.000000 71.119202 0.000000 -26.833000 -15.321100 -2.761010 1.094462 -4.306056 -82.445111 0.000000 0.000000 112.156998 -14.627314 -8.030393 26.672793 0.000000 0.000000 -42.096500 6.190734 -6.841257 -66.724627 0.000000 0.000000 79.669296 61.166913 4.265445 22.394227 0.000000 0.000000 -107.252197 
-18.439728 0.370623 49.220733 -174.784587 6.748061 120.474629 5.177142 -8.543593 34.529315 -11.654419 0.285015 27.232464 0.000000 0.000000 0.000000 2.264389 -36.677047 5.486371 -5.622039 52.491524 -68.349724 -7.839020 3.213860 3.069290 -13.193300 -14.140900 -6.360270 0.000000 -57.397598 0.000000 17.549801 7.139820 21.839199 17.689100 -5.577020 3.938550 42.351101 -3.353360 18.571899 0.000000 70.484001 0.000000 -26.202900 -14.005600 -0.225780 0.666845 -4.115166 -82.189189 0.000000 0.000000 110.625999 -14.559961 -7.945669 26.301256 0.000000 0.000000 -41.872999 6.024993 -6.644329 -66.535716 0.000000 0.000000 79.592003 60.970500 4.117597 22.186430 0.000000 0.000000 -107.300499 
-18.439987 0.370340 49.216214 -174.593574 6.922372 120.699805 5.407291 -8.579044 34.372162 -11.482563 0.465327 27.180169 0.000000 0.000000 0.000000 2.606966 -36.937731 5.475049 -6.084123 52.711826 -68.644597 -8.370340 3.570260 2.900710 -13.845100 -13.499500 -5.473040 0.000000 -56.544998 0.000000 17.936800 7.235060 21.972500 18.038601 -5.500380 3.900640 41.709801 -2.562020 18.451401 0.000000 69.752098 0.000000 -25.176500 -13.389900 1.007420 0.308837 -3.989425 -81.803333 0.000000 0.000000 108.989998 -14.620545 -8.019971 26.210241 0.000000 0.000000 -41.936701 6.026702 -6.604122 -66.323934 0.000000 0.000000 79.332901 62.396171 3.254426 21.269595 0.000000 0.000000 -107.604797 
-18.440083 0.368484 49.212279 -174.576533 6.978941 120.976978 5.478197 -8.504237 34.177085 -11.333145 0.583809 27.132124 0.000000 0.000000 0.000000 2.934682 -37.135007 5.330971 -6.411120 52.889514 -68.769173 -8.816500 3.941080 2.619740 -14.586600 -12.848000 -4.362540 0.000000 -55.665199 0.000000 18.344900 7.323280 21.753401 18.257799 -5.337520 3.971690 41.265400 -1.784600 18.182301 0.000000 68.828300 0.000000 -24.280300 -12.244900 1.469560 -0.209494 -3.789395 -81.337912 0.000000 0.000000 107.221001 -14.747061 -7.872744 26.220666 0.000000 0.000000 -41.926701 6.088062 -6.607981 -66.414162 0.000000 0.000000 79.111603 62.239564 1.631029 20.631030 0.000000 0.000000 -106.836304 
-18.440875 0.365573 49.207502 -174.698824 6.810697 121.499878 5.383832 -8.347723 33.731475 -11.197522 0.620367 27.131421 0.000000 0.000000 0.000000 3.321316 -37.295278 5.060111 -6.469970 53.074386 -68.637927 -9.245090 4.322860 2.527260 -15.255700 -12.291800 -3.408330 0.000000 -54.830700 0.000000 18.525499 7.415480 21.148300 18.386101 -5.202460 3.916550 40.900600 -1.011840 18.028299 0.000000 67.786003 0.000000 -23.393499 -11.570300 2.248460 -0.958933 -3.620204 -80.980423 0.000000 0.000000 105.303001 -15.541194 -7.445235 26.407520 0.000000 0.000000 -42.020300 5.913585 -6.590164 -66.919030 0.000000 0.000000 78.915298 61.713933 0.275384 20.312225 0.000000 0.000000 -107.418800 
-18.438497 0.364166 49.202468 -174.743953 6.810345 121.797095 5.360317 -8.213923 33.518032 -11.015898 0.715778 27.184597 0.000000 0.000000 0.000000 3.690960 -37.332625 4.584335 -6.145994 53.204450 -68.165705 -9.665290 4.632440 2.287120 -16.002600 -11.670300 -2.394190 0.000000 -53.968399 0.000000 18.747000 7.097910 21.167200 18.580700 -5.122470 3.970390 40.423401 -0.093241 17.839500 0.000000 66.794197 0.000000 -22.334000 -10.988100 3.090790 -1.408364 -3.434526 -80.420786 0.000000 0.000000 103.431000 -15.788974 -7.157411 26.538461 0.000000 0.000000 -41.907400 5.868335 -6.556584 -67.145546 0.000000 0.000000 78.836502 62.007113 -0.072955 20.368217 0.000000 0.000000 -107.468498 
